<?xml version="1.0" standalone="no"?>
<!DOCTYPE svg PUBLIC "-//W3C//DTD SVG 20010904//EN"
 "http://www.w3.org/TR/2001/REC-SVG-20010904/DTD/svg10.dtd">
<svg version="1.0" xmlns="http://www.w3.org/2000/svg"
 width="512.000000pt" height="512.000000pt" viewBox="0 0 512.000000 512.000000"
 preserveAspectRatio="xMidYMid meet">
<metadata>
Created by potrace 1.11, written by Peter Selinger 2001-2013
</metadata>
<g transform="translate(0.000000,512.000000) scale(0.100000,-0.100000)"
fill="#000000" stroke="none">
<path d="M640 4784 c-149 -40 -272 -168 -310 -324 -8 -32 -10 -587 -8 -1925
l3 -1880 22 -55 c46 -111 142 -207 253 -253 l55 -22 1885 -2 c1283 -2 1898 0
1925 7 150 40 270 154 316 301 18 59 19 119 17 1947 l-3 1887 -22 55 c-46 111
-142 207 -253 253 l-55 22 -1885 2 c-1636 2 -1892 0 -1940 -13z"/>
</g>
</svg>
